<?xml version="1.0" encoding="UTF-8" standalone="no"?>
<!-- Generator: Adobe Illustrator 19.0.0, SVG Export Plug-In . SVG Version: 6.00 Build 0)  -->

<svg
   xmlns:dc="http://purl.org/dc/elements/1.1/"
   xmlns:cc="http://creativecommons.org/ns#"
   xmlns:rdf="http://www.w3.org/1999/02/22-rdf-syntax-ns#"
   xmlns:svg="http://www.w3.org/2000/svg"
   xmlns="http://www.w3.org/2000/svg"
   xmlns:sodipodi="http://sodipodi.sourceforge.net/DTD/sodipodi-0.dtd"
   xmlns:inkscape="http://www.inkscape.org/namespaces/inkscape"
   version="1.1"
   id="Capa_1"
   x="0px"
   y="0px"
   viewBox="0 0 270 270"
   xml:space="preserve"
   inkscape:version="0.91 r13725"
   sodipodi:docname="speaker.svg"
   width="270"
   height="270"><metadata
     id="metadata39"><rdf:RDF><cc:Work
         rdf:about=""><dc:format>image/svg+xml</dc:format><dc:type
           rdf:resource="http://purl.org/dc/dcmitype/StillImage" /><dc:title></dc:title></cc:Work></rdf:RDF></metadata><defs
     id="defs37" /><sodipodi:namedview
     pagecolor="#ffffff"
     bordercolor="#666666"
     borderopacity="1"
     objecttolerance="10"
     gridtolerance="10"
     guidetolerance="10"
     inkscape:pageopacity="0"
     inkscape:pageshadow="2"
     inkscape:window-width="1307"
     inkscape:window-height="744"
     id="namedview35"
     showgrid="false"
     inkscape:zoom="1.5170655"
     inkscape:cx="76.117396"
     inkscape:cy="156.02626"
     inkscape:window-x="59"
     inkscape:window-y="24"
     inkscape:window-maximized="1"
     inkscape:current-layer="Capa_1" /><path
     d="M 269.88855,135.05572 C 269.88855,60.649904 209.3501,0.11144785 134.94428,0.11144785 60.538456,0.11144785 0,60.649904 0,135.05572 0,174.3564 16.89993,209.7805 43.800458,234.46304 l -0.127583,0.11286 4.377101,3.69011 c 0.28461,0.24045 0.593755,0.43673 0.878365,0.67227 2.325949,1.92848 4.735317,3.75881 7.18885,5.53026 0.794944,0.57413 1.589889,1.14826 2.399554,1.70766 2.620373,1.8058 5.309444,3.51837 8.0574,5.14261 0.598662,0.3533 1.202231,0.6968 1.8058,1.04029 3.008031,1.71257 6.079853,3.32699 9.225281,4.80893 0.230632,0.10795 0.466172,0.20609 0.696804,0.31405 10.250857,4.76476 21.193612,8.2635 32.63689,10.32937 0.29933,0.054 0.59866,0.10795 0.9029,0.16193 3.55271,0.61339 7.14468,1.10409 10.78082,1.43287 0.44163,0.0392 0.88327,0.0638 1.32981,0.10304 3.62142,0.29933 7.28209,0.49071 10.99183,0.49071 3.67539,0 7.30171,-0.19138 10.90349,-0.48089 0.45636,-0.0393 0.91272,-0.0638 1.36907,-0.10305 3.6067,-0.32877 7.16923,-0.80476 10.68759,-1.40833 0.30424,-0.054 0.61338,-0.10795 0.91762,-0.16684 11.27153,-2.02171 22.05726,-5.44193 32.17562,-10.08402 0.37294,-0.17174 0.75079,-0.33368 1.12372,-0.51033 3.02766,-1.42305 5.98662,-2.95896 8.8867,-4.59301 0.72134,-0.40729 1.43777,-0.81948 2.1542,-1.24149 2.64,-1.55554 5.23584,-3.17978 7.75807,-4.90707 0.9078,-0.61829 1.79598,-1.27092 2.69398,-1.91866 2.1542,-1.55063 4.26914,-3.15033 6.3252,-4.82364 0.45636,-0.36803 0.94707,-0.68699 1.39361,-1.06483 l 4.48996,-3.749 -0.13249,-0.11286 c 27.13607,-24.69235 44.19793,-60.27839 44.19793,-99.78026 z m -260.0744208,0 c 0,-68.998231 56.1319118,-125.130143 125.1301508,-125.130143 68.99823,0 125.13014,56.131912 125.13014,125.130143 0,37.18083 -16.31599,70.60776 -42.14677,93.54338 -1.44268,-0.99614 -2.89517,-1.88922 -4.38201,-2.6351 l -41.54812,-20.7716 c -3.72937,-1.86469 -6.0455,-5.61368 -6.0455,-9.77978 l 0,-14.51019 c 0.96178,-1.18751 1.97754,-2.53205 3.02766,-4.00907 5.37814,-7.59614 9.69145,-16.0461 12.83688,-25.1389 6.21725,-2.95405 10.23123,-9.14676 10.23123,-16.13933 l 0,-17.39554 c 0,-4.25443 -1.56045,-8.38127 -4.35257,-11.62484 l 0,-22.901271 c 0.25517,-2.546767 1.15807,-16.919559 -9.24,-28.775027 -9.04372,-10.324464 -23.6815,-15.550487 -43.51094,-15.550487 -19.82945,0 -34.46723,5.226023 -43.510946,15.54558 -10.398069,11.855468 -9.49517,26.22826 -9.240002,28.775027 l 0,22.901268 c -2.787213,3.24357 -4.352566,7.37041 -4.352566,11.62484 l 0,17.39554 c 0,5.40268 2.424089,10.44224 6.575466,13.84283 3.974722,15.57012 12.154799,27.35689 15.177551,31.35124 l 0,14.20104 c 0,4.00417 -2.183644,7.68447 -5.702009,9.60803 l -38.80016,21.16417 c -1.23658,0.67227 -2.463346,1.4574 -3.690112,2.33577 C 25.889673,205.18749 9.8141292,171.96666 9.8141292,135.05572 Z M 208.34906,236.29828 c -1.71748,1.24639 -3.46439,2.45353 -5.23584,3.60669 -0.81458,0.52997 -1.62424,1.05993 -2.45354,1.57517 -2.31613,1.43286 -4.67152,2.79703 -7.07598,4.07286 -0.52997,0.27971 -1.06484,0.54469 -1.59971,0.81948 -5.52535,2.83138 -11.24208,5.26528 -17.11584,7.24283 -0.20609,0.0687 -0.41219,0.14231 -0.62319,0.21101 -3.07673,1.02066 -6.19272,1.92847 -9.34305,2.70869 -0.01,0 -0.0196,0.005 -0.0294,0.005 -3.17977,0.78513 -6.39881,1.43777 -9.63747,1.97264 -0.0883,0.0147 -0.17666,0.0344 -0.26498,0.0491 -3.04729,0.49562 -6.11911,0.85383 -9.20075,1.12372 -0.54468,0.0491 -1.08937,0.0834 -1.63896,0.12268 -3.04729,0.23063 -6.10929,0.37784 -9.18602,0.37784 -3.11108,0 -6.21235,-0.15212 -9.29889,-0.38275 -0.53487,-0.0393 -1.06974,-0.0736 -1.5997,-0.12268 -3.11108,-0.27479 -6.20744,-0.64282 -9.27436,-1.14334 -0.13739,-0.0245 -0.27479,-0.0491 -0.41219,-0.0736 -6.48714,-1.08446 -12.87123,-2.67926 -19.088481,-4.76476 -0.191376,-0.0638 -0.387658,-0.13249 -0.579034,-0.19628 -3.086543,-1.05011 -6.138738,-2.21309 -9.136954,-3.49874 -0.01963,-0.01 -0.04416,-0.0196 -0.06379,-0.0294 -2.836283,-1.22186 -5.618589,-2.57621 -8.366545,-4.00417 -0.358216,-0.18646 -0.721338,-0.36312 -1.074647,-0.55449 -2.50751,-1.33963 -4.961042,-2.78722 -7.380225,-4.29859 -0.716432,-0.45145 -1.427956,-0.90781 -2.134573,-1.36907 -2.227808,-1.4574 -4.426173,-2.97368 -6.565653,-4.57829 -0.220818,-0.16684 -0.431821,-0.3435 -0.652639,-0.51034 0.157026,-0.0883 0.314052,-0.17665 0.471078,-0.26498 l 38.80016,-21.16417 c 6.673605,-3.64104 10.820075,-10.6238 10.820075,-18.22484 l -0.005,-17.67524 -1.12862,-1.36417 c -0.10796,-0.12268 -10.717029,-13.02826 -14.726101,-30.50231 l -0.446543,-1.9432 -1.673309,-1.08446 c -2.360298,-1.5261 -3.773532,-4.07777 -3.773532,-6.83063 l 0,-17.39555 c 0,-2.28178 0.966691,-4.40654 2.733235,-6.00134 l 1.619331,-1.4623 0,-27.332354 -0.04416,-0.642825 c -0.01472,-0.11777 -1.462305,-11.91926 6.850263,-21.394802 7.09561,-8.086842 19.25532,-12.194055 36.13072,-12.194055 16.8116,0 28.93205,4.072863 36.04729,12.100821 8.30276,9.3774 6.9435,21.399709 6.93368,21.49785 l -0.0442,27.975175 1.61933,1.46231 c 1.76164,1.58988 2.73324,3.71955 2.73324,6.00134 l 0,17.39554 c 0,3.49874 -2.37993,6.67361 -5.79525,7.72863 l -2.43881,0.75078 -0.78513,2.42899 c -2.89517,8.99465 -7.0171,17.30231 -12.24803,24.69235 -1.28565,1.81562 -2.53695,3.42513 -3.6116,4.65681 l -1.21695,1.3887 0,18.15123 c 0,7.91019 4.39673,15.02543 11.47272,18.55852 l 41.54811,20.7716 c 0.26498,0.13249 0.52506,0.26989 0.78513,0.40729 -0.52505,0.39747 -1.06483,0.7655 -1.59479,1.14825 z"
     id="path3"
     inkscape:connector-curvature="0" /><g
     id="g5"
     transform="translate(0,215)" /><g
     id="g7"
     transform="translate(0,215)" /><g
     id="g9"
     transform="translate(0,215)" /><g
     id="g11"
     transform="translate(0,215)" /><g
     id="g13"
     transform="translate(0,215)" /><g
     id="g15"
     transform="translate(0,215)" /><g
     id="g17"
     transform="translate(0,215)" /><g
     id="g19"
     transform="translate(0,215)" /><g
     id="g21"
     transform="translate(0,215)" /><g
     id="g23"
     transform="translate(0,215)" /><g
     id="g25"
     transform="translate(0,215)" /><g
     id="g27"
     transform="translate(0,215)" /><g
     id="g29"
     transform="translate(0,215)" /><g
     id="g31"
     transform="translate(0,215)" /><g
     id="g33"
     transform="translate(0,215)" /></svg>