<?xml version="1.0" encoding="UTF-8" standalone="no"?>
<!-- Generator: Adobe Illustrator 16.0.0, SVG Export Plug-In . SVG Version: 6.00 Build 0)  -->

<svg
   xmlns:dc="http://purl.org/dc/elements/1.1/"
   xmlns:cc="http://creativecommons.org/ns#"
   xmlns:rdf="http://www.w3.org/1999/02/22-rdf-syntax-ns#"
   xmlns:svg="http://www.w3.org/2000/svg"
   xmlns="http://www.w3.org/2000/svg"
   xmlns:sodipodi="http://sodipodi.sourceforge.net/DTD/sodipodi-0.dtd"
   xmlns:inkscape="http://www.inkscape.org/namespaces/inkscape"
   version="1.1"
   id="Capa_1"
   x="0px"
   y="0px"
   width="45"
   height="45"
   viewBox="0 0 45.000001 45.000001"
   xml:space="preserve"
   inkscape:version="0.91 r13725"
   sodipodi:docname="conf.svg"><metadata
     id="metadata45"><rdf:RDF><cc:Work
         rdf:about=""><dc:format>image/svg+xml</dc:format><dc:type
           rdf:resource="http://purl.org/dc/dcmitype/StillImage" /><dc:title></dc:title></cc:Work></rdf:RDF></metadata><defs
     id="defs43" /><sodipodi:namedview
     pagecolor="#ffffff"
     bordercolor="#666666"
     borderopacity="1"
     objecttolerance="10"
     gridtolerance="10"
     guidetolerance="10"
     inkscape:pageopacity="0"
     inkscape:pageshadow="2"
     inkscape:window-width="1307"
     inkscape:window-height="744"
     id="namedview41"
     showgrid="false"
     inkscape:zoom="3.9740258"
     inkscape:cx="80.765618"
     inkscape:cy="27.861639"
     inkscape:window-x="59"
     inkscape:window-y="24"
     inkscape:window-maximized="1"
     inkscape:current-layer="Capa_1" /><g
     id="g3"
     transform="matrix(0.09110171,0,0,0.09110171,0.24890763,0.4607835)"><g
       id="g5"><path
         d="m 237.541,328.897 c 25.128,0 46.632,-8.946 64.523,-26.83 17.888,-17.884 26.833,-39.399 26.833,-64.525 l 0,-146.177 c 0,-25.126 -8.938,-46.632 -26.833,-64.525 C 284.173,8.951 262.669,0 237.541,0 212.416,0 190.909,8.951 173.017,26.84 155.124,44.73 146.179,66.239 146.179,91.365 l 0,146.177 c 0,25.125 8.949,46.641 26.838,64.525 17.889,17.884 39.399,26.83 64.524,26.83 z"
         id="path7"
         inkscape:connector-curvature="0" /><path
         d="m 396.563,188.15 c -3.606,-3.617 -7.898,-5.426 -12.847,-5.426 -4.944,0 -9.226,1.809 -12.847,5.426 -3.613,3.616 -5.421,7.898 -5.421,12.845 l 0,36.547 c 0,35.214 -12.518,65.333 -37.548,90.362 -25.022,25.03 -55.145,37.545 -90.36,37.545 -35.214,0 -65.334,-12.515 -90.365,-37.545 -25.028,-25.022 -37.541,-55.147 -37.541,-90.362 l 0,-36.547 c 0,-4.947 -1.809,-9.229 -5.424,-12.845 -3.617,-3.617 -7.895,-5.426 -12.847,-5.426 -4.952,0 -9.235,1.809 -12.85,5.426 -3.618,3.616 -5.426,7.898 -5.426,12.845 l 0,36.547 c 0,42.065 14.04,78.659 42.112,109.776 28.073,31.118 62.762,48.961 104.068,53.526 l 0,37.691 -73.089,0 c -4.949,0 -9.231,1.811 -12.847,5.428 -3.617,3.614 -5.426,7.898 -5.426,12.847 0,4.941 1.809,9.233 5.426,12.847 3.616,3.614 7.898,5.428 12.847,5.428 l 182.719,0 c 4.948,0 9.236,-1.813 12.847,-5.428 3.621,-3.613 5.431,-7.905 5.431,-12.847 0,-4.948 -1.81,-9.232 -5.431,-12.847 -3.61,-3.617 -7.898,-5.428 -12.847,-5.428 l -73.08,0 0,-37.691 c 41.299,-4.565 75.985,-22.408 104.061,-53.526 28.076,-31.117 42.12,-67.711 42.12,-109.776 l 0,-36.547 c 0,-4.946 -1.813,-9.225 -5.435,-12.845 z"
         id="path9"
         inkscape:connector-curvature="0" /></g></g><g
     id="g11"
     transform="translate(0,-430.08499)" /><g
     id="g13"
     transform="translate(0,-430.08499)" /><g
     id="g15"
     transform="translate(0,-430.08499)" /><g
     id="g17"
     transform="translate(0,-430.08499)" /><g
     id="g19"
     transform="translate(0,-430.08499)" /><g
     id="g21"
     transform="translate(0,-430.08499)" /><g
     id="g23"
     transform="translate(0,-430.08499)" /><g
     id="g25"
     transform="translate(0,-430.08499)" /><g
     id="g27"
     transform="translate(0,-430.08499)" /><g
     id="g29"
     transform="translate(0,-430.08499)" /><g
     id="g31"
     transform="translate(0,-430.08499)" /><g
     id="g33"
     transform="translate(0,-430.08499)" /><g
     id="g35"
     transform="translate(0,-430.08499)" /><g
     id="g37"
     transform="translate(0,-430.08499)" /><g
     id="g39"
     transform="translate(0,-430.08499)" /></svg>