<?xml version="1.0" encoding="UTF-8" standalone="no"?>
<!-- Generator: Adobe Illustrator 16.0.0, SVG Export Plug-In . SVG Version: 6.00 Build 0)  -->

<svg
   xmlns:dc="http://purl.org/dc/elements/1.1/"
   xmlns:cc="http://creativecommons.org/ns#"
   xmlns:rdf="http://www.w3.org/1999/02/22-rdf-syntax-ns#"
   xmlns:svg="http://www.w3.org/2000/svg"
   xmlns="http://www.w3.org/2000/svg"
   xmlns:sodipodi="http://sodipodi.sourceforge.net/DTD/sodipodi-0.dtd"
   xmlns:inkscape="http://www.inkscape.org/namespaces/inkscape"
   version="1.1"
   id="Capa_1"
   x="0px"
   y="0px"
   width="45"
   height="45"
   viewBox="0 0 45 44.999999"
   xml:space="preserve"
   inkscape:version="0.91 r13725"
   sodipodi:docname="faq.svg"><metadata
     id="metadata40"><rdf:RDF><cc:Work
         rdf:about=""><dc:format>image/svg+xml</dc:format><dc:type
           rdf:resource="http://purl.org/dc/dcmitype/StillImage" /><dc:title></dc:title></cc:Work></rdf:RDF></metadata><defs
     id="defs38" /><sodipodi:namedview
     pagecolor="#ffffff"
     bordercolor="#666666"
     borderopacity="1"
     objecttolerance="10"
     gridtolerance="10"
     guidetolerance="10"
     inkscape:pageopacity="0"
     inkscape:pageshadow="2"
     inkscape:window-width="1307"
     inkscape:window-height="744"
     id="namedview36"
     showgrid="false"
     inkscape:zoom="6.2076805"
     inkscape:cx="38.131642"
     inkscape:cy="30.018497"
     inkscape:window-x="59"
     inkscape:window-y="24"
     inkscape:window-maximized="1"
     inkscape:current-layer="Capa_1" /><g
     id="g3"
     transform="matrix(0.10411319,0,0,0.10411319,-0.310446,0.21634269)"><path
       id="Formspring"
       d="M 178.121,33.309 C 206.145,11.875 243.248,0 282.554,0 c 28.703,0 56.556,6.385 80.535,18.428 l 0.057,0.023 0.061,0.03 c 6.188,2.796 10.058,8.961 10.058,15.56 0,1.62 -0.233,3.274 -0.724,4.926 -1.479,4.861 -5.055,8.851 -9.754,10.844 -2.185,0.924 -4.495,1.381 -6.786,1.381 -2.697,0 -5.4,-0.63 -7.846,-1.883 -15.093,-7.68 -32.17,-12.496 -50.082,-14.27 -14.239,-2.782 -28.913,-4.229 -43.759,-4.229 -34.695,0 -68.034,7.731 -96.805,22.136 5.911,-7.006 12.746,-13.6 20.612,-19.637 z m 216.313,276.986 c 0,-5.399 -2.539,-10.688 -7.3,-14.024 -3.024,-2.114 -6.487,-3.146 -9.903,-3.146 -5.433,0.009 -10.771,2.539 -14.113,7.275 -8.667,12.224 -17.987,21.613 -28.418,28.619 -12.232,8.186 -31.577,20.801 -31.722,20.918 l -0.01,0.019 c -4.872,3.164 -7.794,8.531 -7.794,14.295 l 0.037,22.78 -52.971,-22.458 c -2.114,-0.896 -4.406,-1.372 -6.74,-1.372 l -0.966,0.032 c -3.976,0.229 -7.994,0.336 -11.971,0.336 C 163.697,363.537 109.914,339.586 82.07,300.433 l -0.187,-0.229 0.168,0.229 c -0.539,-0.774 -1.186,-1.489 -1.879,-2.18 l -0.177,-0.191 -0.157,-0.22 c -10.977,-16.227 -16.689,-33.803 -16.68,-52.145 0,-32.637 18.071,-62.077 46.792,-83.182 28.761,-21.137 68.261,-34.151 111.781,-34.151 31.689,0 62.306,6.949 88.6,20.141 l 0.859,0.411 0.037,0.009 c 13.143,6.709 23.699,15.287 31.018,25.032 7.327,9.722 11.396,20.64 11.396,31.834 -0.019,18.134 -10.426,35.374 -28.692,48.54 -20.265,14.622 -47.362,22.575 -76.335,22.575 -7.318,0 -14.641,-0.528 -21.739,-1.55 l -0.247,-0.047 -0.01,0 c -20.302,-3.071 -39.689,-9.712 -56.183,-19.271 l -0.354,-0.173 -0.086,-0.042 c -32.172,-18.999 -51.011,-47.287 -51.011,-77.8 0,-2.371 0.138,-4.721 0.364,-7.05 -13.301,9.472 -24.063,20.766 -31.505,33.206 8.188,32.383 31.365,61.855 65.666,81.784 l 1.281,0.639 0.056,0.02 c 19.823,11.182 42.902,19.014 66.839,22.616 l 0.421,0.056 0.019,0 c 8.681,1.242 17.6,1.886 26.48,1.886 36.324,0 70.641,-10.389 96.571,-29.132 27.844,-20.105 42.904,-47.123 42.928,-76.258 0.01,-35.355 -22.999,-68.23 -62.165,-87.86 l -0.896,-0.43 -0.032,-0.014 c -30.798,-15.29 -66.506,-23.394 -103.287,-23.394 -50.79,-0.009 -98.7,15.304 -134.834,42.935 -37.661,28.852 -58.206,67.372 -58.215,108.677 0,25.936 8.41,51.492 24.383,73.997 0.665,0.9 1.447,1.764 2.303,2.585 l 0.206,0.168 0.128,0.196 c 34.305,46.27 97.943,75.196 166.869,75.173 3.043,0 6.114,-0.052 9.194,-0.163 l 0.606,-0.023 73.235,31.134 c 2.176,0.9 4.472,1.344 6.777,1.344 3.332,0 6.646,-0.942 9.483,-2.823 4.825,-3.174 7.742,-8.55 7.742,-14.281 l 0.042,-39.483 1.223,-0.826 c 6.777,-4.443 16.083,-10.566 23.093,-15.252 13.722,-9.189 26.276,-21.707 37.318,-37.3 2.148,-3.003 3.157,-6.447 3.157,-9.855 z m -139.911,-74.892 -0.41,2.684 0.429,-2.684 0.103,0.014 c 7.626,1.111 15.477,1.662 23.326,1.662 20.396,0 40.044,-3.79 57.461,-10.706 4.182,-6.702 6.395,-13.708 6.403,-20.743 0,-6.121 -1.755,-12.226 -4.938,-18.137 -16.232,9.712 -37.112,15.304 -58.927,15.304 -6.207,0 -12.396,-0.427 -18.36,-1.295 -40.501,-6.037 -72.748,-27.284 -86.105,-55.009 -11.518,2.95 -22.386,6.917 -32.39,11.738 17.288,38.806 59.588,69.168 113.408,77.172 z m 146.92,-92.058 c 0,-31.246 -20.06,-60.38 -54.307,-77.896 l -1.11,-0.511 -0.01,-0.019 C 318.775,51.261 287.169,44.024 254.579,44.024 209.905,44.015 167.783,57.486 135.997,81.818 c -10.734,8.195 -19.873,17.314 -27.342,27.097 32.614,-17.247 70.746,-26.745 110.617,-27.197 11.359,-2.252 23.199,-3.428 35.307,-3.428 27.525,0 54.054,6.104 76.769,17.665 l 0.9,0.425 0.047,0.028 c 15.438,8.093 26.519,19.317 31.605,31.876 14.463,12.895 25.108,28.145 31.181,44.752 4.131,-9.506 6.362,-19.475 6.362,-29.691 z"
       inkscape:connector-curvature="0" /></g><g
     id="g6"
     transform="translate(0,-385.11801)" /><g
     id="g8"
     transform="translate(0,-385.11801)" /><g
     id="g10"
     transform="translate(0,-385.11801)" /><g
     id="g12"
     transform="translate(0,-385.11801)" /><g
     id="g14"
     transform="translate(0,-385.11801)" /><g
     id="g16"
     transform="translate(0,-385.11801)" /><g
     id="g18"
     transform="translate(0,-385.11801)" /><g
     id="g20"
     transform="translate(0,-385.11801)" /><g
     id="g22"
     transform="translate(0,-385.11801)" /><g
     id="g24"
     transform="translate(0,-385.11801)" /><g
     id="g26"
     transform="translate(0,-385.11801)" /><g
     id="g28"
     transform="translate(0,-385.11801)" /><g
     id="g30"
     transform="translate(0,-385.11801)" /><g
     id="g32"
     transform="translate(0,-385.11801)" /><g
     id="g34"
     transform="translate(0,-385.11801)" /></svg>