<?xml version="1.0" encoding="UTF-8" standalone="no"?>
<!-- Generator: Adobe Illustrator 19.0.0, SVG Export Plug-In . SVG Version: 6.00 Build 0)  -->

<svg
   xmlns:dc="http://purl.org/dc/elements/1.1/"
   xmlns:cc="http://creativecommons.org/ns#"
   xmlns:rdf="http://www.w3.org/1999/02/22-rdf-syntax-ns#"
   xmlns:svg="http://www.w3.org/2000/svg"
   xmlns="http://www.w3.org/2000/svg"
   xmlns:sodipodi="http://sodipodi.sourceforge.net/DTD/sodipodi-0.dtd"
   xmlns:inkscape="http://www.inkscape.org/namespaces/inkscape"
   version="1.1"
   id="Layer_1"
   x="0px"
   y="0px"
   viewBox="0 0 45 45"
   xml:space="preserve"
   inkscape:version="0.91 r13725"
   sodipodi:docname="ticket.svg"
   width="45"
   height="45"><metadata
     id="metadata67"><rdf:RDF><cc:Work
         rdf:about=""><dc:format>image/svg+xml</dc:format><dc:type
           rdf:resource="http://purl.org/dc/dcmitype/StillImage" /><dc:title></dc:title></cc:Work></rdf:RDF></metadata><defs
     id="defs65" /><sodipodi:namedview
     pagecolor="#ffffff"
     bordercolor="#666666"
     borderopacity="1"
     objecttolerance="10"
     gridtolerance="10"
     guidetolerance="10"
     inkscape:pageopacity="0"
     inkscape:pageshadow="2"
     inkscape:window-width="1307"
     inkscape:window-height="744"
     id="namedview63"
     showgrid="false"
     inkscape:zoom="5.2149125"
     inkscape:cx="42.16687"
     inkscape:cy="18.814841"
     inkscape:window-x="59"
     inkscape:window-y="24"
     inkscape:window-maximized="1"
     inkscape:current-layer="Layer_1" /><g
     id="g3"
     transform="matrix(0.08748516,0,0,0.08748516,2.2812871e-4,0.20759535)"><g
       id="g5"><path
         d="M 509.353,298.028 275.837,64.511 c -0.002,-0.002 -0.004,-0.004 -0.006,-0.006 -0.002,-0.002 -0.004,-0.004 -0.006,-0.006 L 213.972,2.647 c -3.528,-3.53 -9.249,-3.529 -12.778,0 l -42.972,42.972 c -2.317,2.316 -3.198,5.705 -2.304,8.857 8.13,28.648 0.117,59.507 -20.911,80.534 -15.5,15.5 -36.11,24.037 -58.033,24.037 -7.622,0 -15.191,-1.052 -22.501,-3.126 -3.148,-0.894 -6.54,-0.013 -8.857,2.304 L 2.647,201.194 c -3.529,3.529 -3.529,9.25 0,12.778 l 61.852,61.852 c 0.002,0.002 0.004,0.004 0.006,0.006 0.002,0.002 0.004,0.004 0.006,0.006 l 233.517,233.517 c 1.764,1.765 4.077,2.647 6.389,2.647 2.312,0 4.625,-0.882 6.389,-2.647 l 42.972,-42.972 c 2.317,-2.316 3.198,-5.705 2.304,-8.857 -8.13,-28.647 -0.118,-59.505 20.911,-80.534 15.5,-15.5 36.11,-24.037 58.033,-24.037 7.622,0 15.191,1.052 22.501,3.126 3.153,0.896 6.541,0.014 8.857,-2.304 l 42.972,-42.972 c 3.526,-3.525 3.526,-9.246 -0.003,-12.775 z m -52.115,39.337 c -7.277,-1.648 -14.725,-2.482 -22.213,-2.482 -26.75,0 -51.898,10.417 -70.811,29.33 -24.384,24.383 -34.425,59.594 -26.849,93.025 l -32.948,32.947 -220.743,-220.743 8.519,-8.519 c 3.529,-3.529 3.529,-9.25 0,-12.778 -3.529,-3.529 -9.25,-3.529 -12.778,0 l -8.519,8.519 -49.08,-49.08 32.948,-32.948 c 7.277,1.648 14.725,2.482 22.213,2.482 26.75,0 51.899,-10.417 70.811,-29.33 24.383,-24.383 34.425,-59.593 26.849,-93.024 l 32.948,-32.948 49.08,49.08 -8.519,8.519 c -3.529,3.529 -3.529,9.25 0,12.778 1.764,1.764 4.077,2.647 6.389,2.647 2.312,0 4.625,-0.882 6.389,-2.647 l 8.519,-8.519 220.743,220.743 -32.948,32.948 z"
         id="path7"
         inkscape:connector-curvature="0" /></g></g><g
     id="g9"
     transform="matrix(0.08748516,0,0,0.08748516,2.2812871e-4,0.20759535)"><g
       id="g11"><path
         d="M 417.006,281.553 267.994,132.541 c -3.529,-3.529 -9.25,-3.529 -12.778,0 L 132.541,255.215 c -3.529,3.529 -3.529,9.25 0,12.778 l 149.013,149.013 c 1.764,1.764 4.077,2.647 6.389,2.647 2.312,0 4.625,-0.882 6.389,-2.647 L 417.006,294.332 c 3.529,-3.529 3.529,-9.251 0,-12.779 z M 287.942,397.839 151.709,261.604 261.605,151.708 397.838,287.942 287.942,397.839 Z"
         id="path13"
         inkscape:connector-curvature="0" /></g></g><g
     id="g15"
     transform="matrix(0.08748516,0,0,0.08748516,2.2812871e-4,0.20759535)"><g
       id="g17"><path
         d="m 337.249,276.463 -27.553,-19.484 0.431,-33.743 c 0.045,-3.439 -1.869,-6.605 -4.934,-8.166 -3.064,-1.563 -6.75,-1.248 -9.506,0.81 l -27.045,20.182 -31.957,-10.837 c -3.258,-1.102 -6.86,-0.264 -9.293,2.169 -2.433,2.433 -3.272,6.034 -2.167,9.291 l 10.837,31.957 -20.182,27.045 c -2.058,2.757 -2.371,6.442 -0.81,9.506 1.561,3.064 4.74,4.978 8.166,4.934 l 33.743,-0.431 19.484,27.553 c 1.71,2.417 4.472,3.818 7.377,3.818 0.469,0 0.942,-0.036 1.414,-0.111 3.398,-0.539 6.194,-2.958 7.216,-6.243 l 10.017,-32.225 32.225,-10.017 c 3.285,-1.022 5.705,-3.818 6.243,-7.216 0.538,-3.398 -0.899,-6.805 -3.706,-8.792 z m -44.662,10.176 c -2.84,0.883 -5.064,3.107 -5.947,5.947 l -5.992,19.277 -11.655,-16.482 c -1.695,-2.396 -4.447,-3.818 -7.377,-3.818 -0.039,0 -0.077,0 -0.117,0 l -20.185,0.258 12.073,-16.179 c 1.778,-2.382 2.27,-5.488 1.314,-8.305 l -6.483,-19.118 19.118,6.483 c 2.816,0.954 5.923,0.464 8.306,-1.316 l 16.179,-12.073 -0.258,20.185 c -0.037,2.975 1.39,5.776 3.818,7.494 l 16.482,11.655 -19.276,5.992 z"
         id="path19"
         inkscape:connector-curvature="0" /></g></g><g
     id="g21"
     transform="matrix(0.08748516,0,0,0.08748516,2.2812871e-4,0.20759535)"><g
       id="g23"><path
         d="m 227.176,113.161 c -3.529,-3.529 -9.25,-3.529 -12.778,0 l -33.745,33.745 c -3.529,3.529 -3.529,9.25 0,12.778 1.764,1.764 4.077,2.647 6.389,2.647 2.312,0 4.625,-0.882 6.389,-2.647 l 33.745,-33.745 c 3.529,-3.528 3.529,-9.25 0,-12.778 z"
         id="path25"
         inkscape:connector-curvature="0" /></g></g><g
     id="g27"
     transform="matrix(0.08748516,0,0,0.08748516,2.2812871e-4,0.20759535)"><g
       id="g29"><path
         d="m 159.685,180.652 c -3.529,-3.529 -9.25,-3.529 -12.778,0 l -33.745,33.745 c -3.529,3.529 -3.529,9.25 0,12.778 1.764,1.764 4.077,2.647 6.389,2.647 2.312,0 4.625,-0.882 6.389,-2.647 l 33.745,-33.745 c 3.529,-3.527 3.529,-9.249 0,-12.778 z"
         id="path31"
         inkscape:connector-curvature="0" /></g></g><g
     id="g33"
     transform="translate(0,-467)" /><g
     id="g35"
     transform="translate(0,-467)" /><g
     id="g37"
     transform="translate(0,-467)" /><g
     id="g39"
     transform="translate(0,-467)" /><g
     id="g41"
     transform="translate(0,-467)" /><g
     id="g43"
     transform="translate(0,-467)" /><g
     id="g45"
     transform="translate(0,-467)" /><g
     id="g47"
     transform="translate(0,-467)" /><g
     id="g49"
     transform="translate(0,-467)" /><g
     id="g51"
     transform="translate(0,-467)" /><g
     id="g53"
     transform="translate(0,-467)" /><g
     id="g55"
     transform="translate(0,-467)" /><g
     id="g57"
     transform="translate(0,-467)" /><g
     id="g59"
     transform="translate(0,-467)" /><g
     id="g61"
     transform="translate(0,-467)" /></svg>