<?xml version="1.0" encoding="UTF-8" standalone="no"?>
<!-- Generator: Adobe Illustrator 18.0.0, SVG Export Plug-In . SVG Version: 6.00 Build 0)  -->

<svg
   xmlns:dc="http://purl.org/dc/elements/1.1/"
   xmlns:cc="http://creativecommons.org/ns#"
   xmlns:rdf="http://www.w3.org/1999/02/22-rdf-syntax-ns#"
   xmlns:svg="http://www.w3.org/2000/svg"
   xmlns="http://www.w3.org/2000/svg"
   xmlns:sodipodi="http://sodipodi.sourceforge.net/DTD/sodipodi-0.dtd"
   xmlns:inkscape="http://www.inkscape.org/namespaces/inkscape"
   version="1.1"
   id="Capa_1"
   x="0px"
   y="0px"
   viewBox="0 0 45 45"
   xml:space="preserve"
   inkscape:version="0.91 r13725"
   sodipodi:docname="volunteer.svg"
   width="45"
   height="45"><metadata
     id="metadata3546"><rdf:RDF><cc:Work
         rdf:about=""><dc:format>image/svg+xml</dc:format><dc:type
           rdf:resource="http://purl.org/dc/dcmitype/StillImage" /><dc:title></dc:title></cc:Work></rdf:RDF></metadata><defs
     id="defs3544" /><sodipodi:namedview
     pagecolor="#ffffff"
     bordercolor="#666666"
     borderopacity="1"
     objecttolerance="10"
     gridtolerance="10"
     guidetolerance="10"
     inkscape:pageopacity="0"
     inkscape:pageshadow="2"
     inkscape:window-width="640"
     inkscape:window-height="480"
     id="namedview3542"
     showgrid="false"
     inkscape:zoom="4.4950088"
     inkscape:cx="35.909527"
     inkscape:cy="20.395636"
     inkscape:window-x="614"
     inkscape:window-y="56"
     inkscape:window-maximized="0"
     inkscape:current-layer="Capa_1" /><path
     d="m 7.225483,28.582499 c 0,0.432413 0.167617,2.245194 1.3923093,4.396681 1.036819,1.821547 3.0046697,3.951874 6.6264537,4.422678 l 0,6.082352 c 0,0.837017 0.678625,1.51579 1.51579,1.51579 0.837015,0 1.515641,-0.678773 1.515641,-1.51579 l 0,-7.503225 c 0,-0.837017 -0.678626,-1.51579 -1.515641,-1.51579 -2.491859,0 -4.329123,-0.977124 -5.460409,-2.904319 -0.834443,-1.421024 -1.046196,-2.621534 -1.046196,-3.150375 0,-3.199345 0,-12.437968 0,-12.437968 0,-0.269333 0,-0.985287 1.244949,-0.985287 1.244639,0 1.244639,0.715803 1.244639,0.985287 l 0,5.221606 c 0,0.413521 0.168828,0.809207 0.467783,1.095165 0.298804,0.285807 0.701143,0.439064 1.114512,0.419113 0.0038,-0.0017 0.885985,0.0033 2.001708,0.633431 1.712872,0.967603 3.095053,2.909306 3.996911,5.615026 0.264797,0.794244 1.123279,1.223786 1.917369,0.958836 0.79425,-0.264798 1.223482,-1.123277 0.958685,-1.91737 -1.961196,-5.884207 -5.409318,-7.612954 -7.425237,-8.116404 l 0,-14.0217706 c 0,-0.3279752 0,-0.8770692 1.244798,-0.8770692 1.244639,0 1.244639,0.549094 1.244639,0.8770692 l 0,8.2719266 c 0,0.837169 0.678776,1.51579 1.515791,1.51579 0.837015,0 1.51564,-0.678621 1.51564,-1.51579 l 0,-10.1123662 c 0,-0.3279752 0,-0.8770692 1.244789,-0.8770692 1.244649,0 1.244649,0.549094 1.244649,0.8770692 l 0,10.1123662 c 0,0.837169 0.678775,1.51579 1.51579,1.51579 0.837015,0 1.51579,-0.678621 1.51579,-1.51579 l 0,-8.2719266 c 0,-0.3279752 0,-0.8770692 1.244639,-0.8770692 1.244799,0 1.244799,0.549094 1.244799,0.8770692 l 0,10.7730026 c 0,0.837017 0.678766,1.51579 1.51579,1.51579 0.837166,0 1.515791,-0.678773 1.515791,-1.51579 l 0,-5.662635 c 0,-0.269333 0,-0.985286 1.244789,-0.985286 1.244798,0 1.246,0.715802 1.246,0.985286 l 0,17.593073 c 0.0019,0.02675 0.108369,2.733681 -1.499157,4.434618 -0.919843,0.973496 -2.287513,1.466971 -4.064777,1.466971 -0.837175,0 -1.515791,0.678773 -1.515791,1.51579 l 0,7.503225 c 0,0.837017 0.678616,1.51579 1.515791,1.51579 0.837015,0 1.51564,-0.678773 1.51564,-1.51579 l 0,-6.083864 c 1.944872,-0.258752 3.538957,-1.036069 4.75231,-2.320008 2.391798,-2.530851 2.345099,-6.134195 2.326204,-6.634923 l 0,-17.474882 c 0,-2.3648978 -1.75867,-4.0168651 -4.27637,-4.0168651 -0.440121,0 -0.856511,0.05169 -1.244799,0.1476645 l 0,-1.2410159 c 0,-2.3379946 -1.718617,-3.908497 -4.27652,-3.908497 -0.602443,0 -1.157737,0.088115 -1.655595,0.2519514 -0.653685,-1.29860042 -2.046895,-2.09254219 -3.864663,-2.09254219 -1.817927,0 -3.210988,0.79394177 -3.865423,2.09239109 -0.497858,-0.1638365 -1.053152,-0.2519515 -1.655595,-0.2519515 -2.557904,0 -4.27653,1.5706536 -4.27653,3.9084971 l 0,6.2431666 c -0.388278,-0.09597 -0.804669,-0.147513 -1.244639,-0.147513 -2.5180008,0 -4.2765295,1.651967 -4.2765295,4.016865 -1.502e-4,-1.51e-4 0.00375,9.339282 0.00375,12.609815 z"
     id="path3510"
     inkscape:connector-curvature="0" /><g
     id="g3512"
     transform="translate(0,-252)" /><g
     id="g3514"
     transform="translate(0,-252)" /><g
     id="g3516"
     transform="translate(0,-252)" /><g
     id="g3518"
     transform="translate(0,-252)" /><g
     id="g3520"
     transform="translate(0,-252)" /><g
     id="g3522"
     transform="translate(0,-252)" /><g
     id="g3524"
     transform="translate(0,-252)" /><g
     id="g3526"
     transform="translate(0,-252)" /><g
     id="g3528"
     transform="translate(0,-252)" /><g
     id="g3530"
     transform="translate(0,-252)" /><g
     id="g3532"
     transform="translate(0,-252)" /><g
     id="g3534"
     transform="translate(0,-252)" /><g
     id="g3536"
     transform="translate(0,-252)" /><g
     id="g3538"
     transform="translate(0,-252)" /><g
     id="g3540"
     transform="translate(0,-252)" /></svg>