<?xml version="1.0" encoding="iso-8859-1"?>
<!-- Generator: Adobe Illustrator 16.0.0, SVG Export Plug-In . SVG Version: 6.00 Build 0)  -->
<!DOCTYPE svg PUBLIC "-//W3C//DTD SVG 1.1//EN" "http://www.w3.org/Graphics/SVG/1.1/DTD/svg11.dtd">
<svg version="1.1" id="Capa_1" xmlns="http://www.w3.org/2000/svg" xmlns:xlink="http://www.w3.org/1999/xlink" x="0px" y="0px"
	 width="44.678px" height="44.678px" viewBox="0 0 44.678 44.678" style="enable-background:new 0 0 44.678 44.678;"
	 xml:space="preserve">
<g>
	<g id="_x31_86_50_">
		<g>
			<path d="M13.16,18.613c0,0-0.063-0.694-0.094-1.042c0.164-0.094,0.321-0.196,0.468-0.31c0.261,0.15,0.781,0.451,0.781,0.451
				l0.887-0.233l1.006-1.739l-0.233-0.887c0,0-0.67-0.389-1.005-0.581c-0.009-0.193-0.03-0.385-0.069-0.569
				c0.266-0.229,0.796-0.682,0.796-0.682v-0.917l-1.309-1.526h-0.917c0,0-0.435,0.372-0.652,0.559
				c-0.236-0.114-0.485-0.208-0.745-0.279c-0.021-0.258-0.063-0.775-0.063-0.775l-0.648-0.648L9.36,9.597l-0.648,0.648
				c0,0,0.055,0.681,0.082,1.021c-0.196,0.111-0.381,0.237-0.554,0.378c-0.281-0.13-0.846-0.387-0.846-0.387l-0.887,0.232
				l-0.839,1.828l-0.029,0.125l0.263,0.762c0,0,0.654,0.299,0.982,0.449c0.014,0.216,0.047,0.425,0.101,0.63
				c-0.25,0.21-0.749,0.635-0.749,0.635v0.916l1.299,1.534c0,0,0.755,0.09,0.796,0.067c0.041-0.022,0.122-0.067,0.122-0.067
				s0.475-0.402,0.712-0.604c0.2,0.09,0.409,0.165,0.626,0.224c0.024,0.27,0.074,0.809,0.074,0.809l0.648,0.648l2-0.183
				L13.16,18.613z M10.815,16.461c-1.116,0-2.021-0.905-2.021-2.021c0-1.117,0.905-2.022,2.021-2.022
				c1.118,0,2.023,0.905,2.023,2.022C12.838,15.555,11.933,16.461,10.815,16.461z"/>
			<path d="M18.718,25.188c0,0-0.048-0.525-0.071-0.789c0.124-0.07,0.243-0.147,0.354-0.233c0.197,0.112,0.59,0.341,0.59,0.341
				l0.671-0.176l0.761-1.315l-0.176-0.67c0,0-0.506-0.294-0.76-0.439c-0.006-0.146-0.022-0.291-0.052-0.43
				c0.201-0.172,0.602-0.516,0.602-0.516v-0.693l-0.99-1.154h-0.694c0,0-0.329,0.281-0.493,0.422
				c-0.178-0.086-0.367-0.157-0.563-0.211c-0.016-0.195-0.047-0.586-0.047-0.586l-0.49-0.49l-1.514,0.123l-0.49,0.49
				c0,0,0.042,0.515,0.062,0.771c-0.148,0.084-0.289,0.18-0.419,0.286c-0.212-0.098-0.639-0.292-0.639-0.292l-0.671,0.176
				l-0.634,1.382l-0.022,0.094l0.199,0.576c0,0,0.495,0.226,0.742,0.339c0.011,0.164,0.036,0.32,0.077,0.477
				c-0.189,0.159-0.566,0.479-0.566,0.479v0.693l0.982,1.16c0,0,0.571,0.068,0.602,0.051c0.031-0.017,0.092-0.051,0.092-0.051
				s0.359-0.305,0.538-0.456c0.151,0.067,0.309,0.125,0.474,0.169c0.019,0.204,0.056,0.611,0.056,0.611l0.49,0.49l1.512-0.139
				L18.718,25.188z M16.945,23.561c-0.844,0-1.528-0.686-1.528-1.529c0-0.844,0.684-1.528,1.528-1.528
				c0.845,0,1.53,0.685,1.53,1.528C18.475,22.875,17.79,23.561,16.945,23.561z"/>
			<path d="M32.653,6.125c-6.418,0-12.835,0-19.253,0c-1.612,0-1.612,2.5,0,2.5c6.418,0,12.835,0,19.253,0
				C34.265,8.625,34.265,6.125,32.653,6.125z"/>
			<path d="M32.653,12.042c-6.418,0-2.836,0-9.254,0c-1.611,0-1.611,2.5,0,2.5c6.418,0,2.836,0,9.254,0
				C34.265,14.542,34.265,12.042,32.653,12.042z"/>
			<polygon points="7.198,3 36.253,3 36.253,18.867 39.253,18.867 39.253,0 4.198,0 4.198,9.784 7.198,9.784 			"/>
			<path d="M33.97,35.793c-0.004-0.319-0.029-0.637-0.084-0.943c0.449-0.361,1.35-1.082,1.35-1.082l0.049-1.511l-2.076-2.586
				l-1.514-0.049c0,0-0.736,0.592-1.104,0.887c-0.383-0.2-0.789-0.369-1.213-0.5c-0.021-0.427-0.064-1.282-0.064-1.282l-1.035-1.102
				l-3.309,0.161l-1.104,1.034c0,0,0.055,1.125,0.08,1.687c-0.328,0.173-0.641,0.372-0.933,0.593
				c-0.457-0.228-1.374-0.683-1.374-0.683l-1.475,0.337l-1.479,2.97l-0.055,0.203l0.392,1.271c0,0,1.063,0.526,1.595,0.791
				c0.012,0.357,0.056,0.705,0.133,1.043c-0.423,0.334-1.269,1.009-1.269,1.009l-0.049,1.509l2.06,2.598c0,0,1.24,0.188,1.308,0.153
				s0.204-0.104,0.204-0.104s0.805-0.638,1.207-0.957c0.324,0.16,0.664,0.295,1.02,0.402c0.025,0.446,0.078,1.338,0.078,1.338
				l1.035,1.102l3.305-0.194l1.104-1.032c0,0-0.066-1.149-0.1-1.724c0.273-0.146,0.539-0.308,0.789-0.487
				c0.42,0.262,1.264,0.786,1.264,0.786l1.475-0.338l1.752-2.813l-0.338-1.476C35.597,36.803,34.513,36.129,33.97,35.793z
				 M27.005,39.179c-1.84-0.059-3.285-1.599-3.225-3.438c0.059-1.844,1.6-3.286,3.439-3.228c1.842,0.06,3.285,1.599,3.227,3.442
				C30.386,37.796,28.847,39.238,27.005,39.179z"/>
			<path d="M40.116,28.74c0,0-1.166-0.725-1.75-1.086c-0.004-0.344-0.029-0.684-0.09-1.013c0.484-0.389,1.453-1.165,1.453-1.165
				l0.053-1.625l-2.234-2.782l-1.627-0.053c0,0-0.793,0.635-1.188,0.955c-0.412-0.217-0.848-0.399-1.307-0.539
				c-0.021-0.46-0.066-1.379-0.066-1.379l-1.111-1.187l-3.562,0.174l-1.186,1.112c0,0,0.059,1.209,0.086,1.813
				c-0.354,0.187-0.689,0.399-1.002,0.64c-0.492-0.246-1.48-0.734-1.48-0.734l-1.584,0.363l-1.593,3.192l-0.06,0.22l0.423,1.366
				c0,0,0.746,0.37,1.335,0.662l0.66-0.619l0.27-0.251l0.367-0.018l2.656-0.129c0.465-1.506,1.877-2.584,3.527-2.53
				c1.982,0.063,3.535,1.719,3.471,3.7c-0.016,0.533-0.156,1.031-0.379,1.479l1.865,2.324l0.232,0.289l-0.012,0.37l-0.031,0.958
				c0.387,0.24,0.758,0.471,0.758,0.471l1.586-0.363l1.883-3.025L40.116,28.74z"/>
			<path d="M5.927,25.189c0.294,0,0.537-0.08,0.73-0.238c0.193-0.157,0.339-0.381,0.436-0.67c0.097-0.291,0.146-0.672,0.146-1.145
				c0-0.398-0.031-0.716-0.09-0.949c-0.061-0.237-0.145-0.436-0.25-0.601c-0.108-0.163-0.242-0.289-0.404-0.375
				c-0.163-0.086-0.352-0.13-0.568-0.13c-0.293,0-0.536,0.078-0.729,0.236c-0.193,0.157-0.339,0.38-0.438,0.67
				c-0.096,0.292-0.146,0.673-0.146,1.149c0,0.756,0.132,1.301,0.396,1.637C5.233,25.05,5.538,25.189,5.927,25.189z M5.378,21.778
				c0.135-0.192,0.317-0.289,0.544-0.289c0.23,0,0.422,0.109,0.578,0.326c0.154,0.218,0.232,0.658,0.232,1.32
				c0,0.659-0.078,1.098-0.232,1.316c-0.155,0.221-0.346,0.33-0.572,0.33c-0.227,0-0.418-0.109-0.572-0.328
				c-0.155-0.219-0.232-0.658-0.232-1.318C5.122,22.477,5.207,22.023,5.378,21.778z"/>
			<path d="M8.843,21.619c-0.207,0.185-0.449,0.342-0.725,0.473v0.477c0.154-0.056,0.328-0.141,0.521-0.254
				c0.193-0.113,0.348-0.228,0.467-0.34v3.147H9.6v-4.04H9.281C9.196,21.256,9.05,21.434,8.843,21.619z"/>
			<path d="M6.993,27.587c-0.107-0.163-0.24-0.289-0.404-0.375c-0.163-0.086-0.352-0.13-0.568-0.13
				c-0.292,0-0.536,0.078-0.729,0.236c-0.193,0.156-0.337,0.379-0.436,0.67c-0.097,0.289-0.147,0.673-0.147,1.147
				c0,0.756,0.133,1.302,0.398,1.636c0.221,0.278,0.525,0.418,0.914,0.418c0.294,0,0.538-0.08,0.732-0.238
				c0.191-0.158,0.337-0.383,0.435-0.672c0.097-0.289,0.146-0.67,0.146-1.144c0-0.397-0.03-0.716-0.09-0.95
				C7.182,27.949,7.098,27.751,6.993,27.587z M6.593,30.453c-0.155,0.22-0.345,0.33-0.572,0.33s-0.417-0.11-0.572-0.329
				c-0.155-0.218-0.23-0.658-0.23-1.318c0-0.659,0.083-1.112,0.253-1.358c0.135-0.191,0.317-0.289,0.544-0.289
				c0.231,0,0.423,0.109,0.578,0.326c0.155,0.219,0.232,0.658,0.232,1.32C6.825,29.796,6.748,30.234,6.593,30.453z"/>
			<path d="M9.695,31.121v-4.04H9.376c-0.085,0.174-0.232,0.353-0.438,0.538c-0.206,0.185-0.448,0.342-0.724,0.473v0.477
				c0.153-0.056,0.327-0.141,0.52-0.254s0.349-0.228,0.467-0.34v3.147L9.695,31.121L9.695,31.121z"/>
			<path d="M12.403,31.121v-4.04h-0.318c-0.085,0.174-0.232,0.353-0.438,0.538c-0.206,0.185-0.448,0.342-0.724,0.473v0.477
				c0.152-0.056,0.327-0.141,0.52-0.254s0.35-0.228,0.467-0.34v3.147L12.403,31.121L12.403,31.121z"/>
			<path d="M15.952,27.587c-0.107-0.163-0.24-0.289-0.404-0.375c-0.163-0.086-0.352-0.13-0.567-0.13
				c-0.293,0-0.537,0.078-0.73,0.236c-0.193,0.156-0.337,0.379-0.436,0.67c-0.097,0.291-0.146,0.673-0.146,1.148
				c0,0.756,0.132,1.301,0.397,1.637c0.221,0.277,0.526,0.416,0.915,0.416c0.293,0,0.537-0.08,0.73-0.238
				c0.193-0.157,0.337-0.381,0.435-0.67c0.097-0.291,0.147-0.672,0.147-1.145c0-0.398-0.031-0.716-0.092-0.949
				C16.142,27.949,16.059,27.751,15.952,27.587z M15.552,30.453c-0.155,0.22-0.345,0.33-0.571,0.33c-0.228,0-0.418-0.11-0.574-0.329
				c-0.155-0.218-0.23-0.658-0.23-1.318c0-0.659,0.085-1.112,0.253-1.358c0.137-0.191,0.317-0.289,0.544-0.289
				c0.231,0,0.423,0.109,0.578,0.326c0.155,0.219,0.232,0.658,0.232,1.32C15.785,29.796,15.708,30.234,15.552,30.453z"/>
			<path d="M6.993,34.332c-0.107-0.164-0.24-0.289-0.404-0.376c-0.163-0.086-0.352-0.13-0.568-0.13
				c-0.292,0-0.536,0.078-0.729,0.236c-0.193,0.156-0.337,0.381-0.436,0.67c-0.097,0.291-0.147,0.672-0.147,1.148
				c0,0.757,0.133,1.302,0.398,1.636c0.221,0.278,0.525,0.419,0.914,0.419c0.294,0,0.538-0.08,0.732-0.238
				c0.191-0.158,0.337-0.383,0.435-0.672c0.097-0.289,0.146-0.672,0.146-1.145c0-0.396-0.03-0.716-0.09-0.95
				C7.182,34.695,7.098,34.496,6.993,34.332z M6.593,37.199c-0.155,0.219-0.345,0.328-0.572,0.328s-0.417-0.108-0.572-0.328
				c-0.155-0.219-0.23-0.657-0.23-1.318c0-0.659,0.083-1.111,0.253-1.357c0.135-0.191,0.317-0.289,0.544-0.289
				c0.231,0,0.423,0.109,0.578,0.326c0.155,0.219,0.232,0.658,0.232,1.32C6.825,36.54,6.748,36.979,6.593,37.199z"/>
			<path d="M10.119,34.332c-0.108-0.164-0.242-0.289-0.404-0.376c-0.163-0.086-0.352-0.13-0.568-0.13
				c-0.292,0-0.536,0.078-0.729,0.236c-0.193,0.156-0.339,0.381-0.438,0.67c-0.097,0.291-0.146,0.672-0.146,1.147
				c0,0.757,0.132,1.302,0.396,1.636c0.222,0.278,0.526,0.418,0.915,0.418c0.294,0,0.538-0.078,0.73-0.238
				c0.193-0.157,0.339-0.381,0.436-0.672c0.097-0.289,0.146-0.67,0.146-1.144c0-0.397-0.031-0.716-0.09-0.95
				C10.308,34.695,10.224,34.496,10.119,34.332z M9.719,37.199c-0.155,0.219-0.345,0.328-0.572,0.328s-0.418-0.108-0.572-0.328
				c-0.155-0.219-0.232-0.657-0.232-1.318c0-0.659,0.085-1.111,0.255-1.357c0.135-0.191,0.317-0.289,0.544-0.289
				c0.231,0,0.423,0.109,0.578,0.326c0.154,0.219,0.232,0.658,0.232,1.32C9.951,36.54,9.873,36.979,9.719,37.199z"/>
			<path d="M13.243,34.332c-0.106-0.164-0.24-0.289-0.402-0.376c-0.165-0.086-0.354-0.13-0.568-0.13
				c-0.292,0-0.536,0.078-0.729,0.236c-0.194,0.156-0.339,0.381-0.438,0.67c-0.097,0.291-0.146,0.672-0.146,1.147
				c0,0.757,0.132,1.302,0.396,1.636c0.222,0.278,0.526,0.418,0.915,0.418c0.293,0,0.538-0.078,0.73-0.238
				c0.193-0.157,0.337-0.381,0.435-0.672c0.097-0.289,0.147-0.67,0.147-1.144c0-0.397-0.031-0.716-0.092-0.95
				C13.434,34.695,13.35,34.496,13.243,34.332z M12.844,37.199c-0.154,0.219-0.346,0.328-0.571,0.328
				c-0.228,0-0.418-0.108-0.573-0.328c-0.155-0.219-0.231-0.657-0.231-1.318c0-0.659,0.085-1.111,0.254-1.357
				c0.136-0.191,0.318-0.289,0.544-0.289c0.23,0,0.423,0.109,0.578,0.326c0.155,0.219,0.233,0.658,0.233,1.32
				C13.077,36.54,12.999,36.979,12.844,37.199z"/>
			<path d="M15.948,37.865v-4.039H15.63c-0.086,0.174-0.233,0.353-0.44,0.537c-0.207,0.186-0.448,0.343-0.724,0.474v0.478
				c0.154-0.058,0.327-0.143,0.52-0.256s0.35-0.228,0.467-0.34v3.148h0.495V37.865z"/>
			<path d="M18.615,40.912c-0.207,0.185-0.449,0.342-0.725,0.473v0.477c0.154-0.057,0.328-0.141,0.521-0.254
				c0.193-0.112,0.348-0.227,0.467-0.34v3.147h0.494v-4.041h-0.319C18.967,40.548,18.821,40.727,18.615,40.912z"/>
			<path d="M6.993,41.076c-0.107-0.163-0.24-0.288-0.404-0.375c-0.163-0.088-0.352-0.131-0.568-0.131
				c-0.292,0-0.536,0.078-0.729,0.235c-0.193,0.157-0.337,0.382-0.436,0.671c-0.097,0.291-0.147,0.674-0.147,1.149
				c0,0.756,0.133,1.3,0.398,1.636c0.221,0.276,0.525,0.416,0.914,0.416c0.294,0,0.538-0.078,0.732-0.236
				c0.191-0.158,0.337-0.384,0.435-0.674c0.097-0.289,0.146-0.671,0.146-1.142c0-0.399-0.03-0.718-0.09-0.951
				C7.182,41.439,7.098,41.24,6.993,41.076z M6.593,43.943c-0.155,0.22-0.345,0.33-0.572,0.33s-0.417-0.11-0.572-0.33
				c-0.155-0.219-0.23-0.656-0.23-1.316c0-0.661,0.083-1.113,0.253-1.359c0.135-0.191,0.317-0.287,0.544-0.287
				c0.231,0,0.423,0.107,0.578,0.326c0.155,0.217,0.232,0.657,0.232,1.32C6.825,43.285,6.748,43.724,6.593,43.943z"/>
			<path d="M8.938,41.107c-0.207,0.186-0.448,0.342-0.724,0.474v0.477c0.153-0.057,0.327-0.141,0.52-0.254
				c0.193-0.112,0.349-0.228,0.467-0.34v3.147h0.494V40.57H9.376C9.291,40.745,9.144,40.923,8.938,41.107z"/>
			<path d="M11.647,41.107c-0.207,0.186-0.448,0.342-0.724,0.474v0.477c0.152-0.057,0.327-0.141,0.52-0.254
				c0.193-0.112,0.35-0.228,0.467-0.34v3.147h0.494V40.57h-0.318C12,40.745,11.853,40.923,11.647,41.107z"/>
			<path d="M15.952,41.076c-0.107-0.163-0.24-0.288-0.404-0.375c-0.163-0.088-0.352-0.131-0.567-0.131
				c-0.293,0-0.537,0.078-0.73,0.235s-0.337,0.382-0.436,0.671c-0.097,0.291-0.146,0.674-0.146,1.149c0,0.756,0.132,1.3,0.397,1.636
				c0.221,0.276,0.526,0.416,0.915,0.416c0.293,0,0.537-0.078,0.73-0.236s0.337-0.384,0.435-0.674
				c0.097-0.289,0.147-0.671,0.147-1.142c0-0.399-0.031-0.718-0.092-0.951C16.142,41.439,16.059,41.24,15.952,41.076z
				 M15.552,43.943c-0.155,0.22-0.345,0.33-0.571,0.33c-0.228,0-0.418-0.11-0.574-0.33c-0.155-0.219-0.23-0.656-0.23-1.316
				c0-0.661,0.085-1.113,0.253-1.359c0.137-0.191,0.317-0.287,0.544-0.287c0.231,0,0.423,0.107,0.578,0.326
				c0.155,0.217,0.232,0.657,0.232,1.32C15.785,43.285,15.708,43.724,15.552,43.943z"/>
		</g>
	</g>
</g>
<g>
</g>
<g>
</g>
<g>
</g>
<g>
</g>
<g>
</g>
<g>
</g>
<g>
</g>
<g>
</g>
<g>
</g>
<g>
</g>
<g>
</g>
<g>
</g>
<g>
</g>
<g>
</g>
<g>
</g>
</svg>
